# xmcd
#
# Track frame offsets: 
#        150
#        16763
#        30923
#        47385
#        72483
#        95678
#        115280
#        133983
#        152278
#        173500
#        189605
#        206973
#        217603
#        237788
#
# Disc length: 3412 seconds
#
# Revision: 1
# Processed by: cddbd v1.5.2PL0 Copyright (c) Steve Scherf et al.
# Submitted via: ExactAudioCopy v0.95a5
#
DISCID=b10d520e
DTITLE=Edegran Orchestra and the New Orleans Jazz Ladies - Shout, Sist
DTITLE=er, Shout
DYEAR=1991
DGENRE=Jazz
TTITLE0=Shout Sister Shout
TTITLE1=I've Got a Feeling I'm Falling
TTITLE2=Oh Papa
TTITLE3=Panama
TTITLE4=You Brought a New Kind of Love to Me
TTITLE5=Bourbon Street Parade
TTITLE6=Don't You Feel My Leg
TTITLE7=Darktown Strutter's Ball
TTITLE8=If We Never Meet Again
TTITLE9=At the Jazz Band Ball
TTITLE10='Tain't Nobody's Bizness If I Do
TTITLE11=Cakewalking Babies From Home
TTITLE12=New Orleans
TTITLE13=Bye and Bye
EXTD=YEAR: 1991
EXTT0=
EXTT1=
EXTT2=
EXTT3=
EXTT4=
EXTT5=
EXTT6=
EXTT7=
EXTT8=
EXTT9=
EXTT10=
EXTT11=
EXTT12=
EXTT13=
PLAYORDER=
